<?xml version="1.0" standalone="no"?>
<!DOCTYPE svg PUBLIC "-//W3C//DTD SVG 20010904//EN"
 "http://www.w3.org/TR/2001/REC-SVG-20010904/DTD/svg10.dtd">
<svg version="1.0" xmlns="http://www.w3.org/2000/svg"
 width="170.000000pt" height="170.000000pt" viewBox="0 0 170.000000 170.000000"
 preserveAspectRatio="xMidYMid meet">
<metadata>
Created by potrace 1.11, written by Peter Selinger 2001-2013
</metadata>
<g transform="translate(0.000000,170.000000) scale(0.100000,-0.100000)"
fill="#000000" stroke="none">
<path d="M840 1675 c-7 -8 -16 -12 -21 -9 -5 3 -9 1 -9 -5 0 -5 6 -12 13 -15
6 -4 2 -4 -10 -2 -13 2 -23 0 -23 -5 0 -5 6 -9 13 -9 9 0 9 -2 -1 -9 -8 -4
-14 -12 -14 -17 -1 -18 -10 -34 -20 -34 -5 0 -6 5 -3 10 3 6 1 10 -4 10 -13 0
-13 2 -1 -38 8 -29 7 -32 -5 -22 -11 10 -15 10 -15 1 0 -7 -4 -9 -10 -6 -6 4
-7 -1 -3 -11 4 -12 3 -15 -5 -10 -7 4 -12 3 -12 -3 0 -5 6 -12 13 -15 6 -4 2
-4 -10 -2 -13 2 -23 0 -23 -5 0 -5 4 -9 10 -9 5 0 7 -7 4 -15 -4 -8 -10 -15
-16 -15 -5 0 -7 4 -4 8 2 4 1 14 -5 22 -6 11 -9 12 -9 2 0 -8 -5 -10 -12 -6
-15 9 10 -25 32 -44 12 -10 10 -10 -13 -2 -34 12 -47 13 -29 1 10 -6 7 -12
-12 -25 -17 -11 -26 -12 -26 -5 0 7 -3 10 -6 6 -3 -3 -1 -14 5 -24 6 -10 11
-13 11 -7 0 17 48 46 55 34 4 -6 1 -9 -7 -8 -7 2 -12 -5 -12 -14 1 -11 -4 -14
-14 -11 -10 4 -13 2 -8 -5 4 -7 2 -12 -5 -12 -7 0 -10 -3 -6 -6 9 -9 -16 -32
-30 -27 -7 3 -10 9 -7 14 3 5 10 7 15 4 5 -4 9 -1 9 4 0 12 -13 14 -24 4 -10
-10 -48 -15 -42 -5 2 4 -4 14 -16 21 -11 7 -17 8 -14 3 3 -6 3 -12 -1 -15 -5
-2 -3 -2 4 -1 6 2 14 -4 17 -13 4 -8 12 -13 19 -10 15 6 54 -20 44 -29 -4 -4
-15 -1 -24 7 -17 13 -17 12 0 -7 16 -19 16 -23 3 -37 -8 -8 -12 -18 -8 -22 4
-5 1 -5 -5 -1 -7 4 -13 2 -13 -4 0 -16 -43 -79 -58 -85 -8 -3 -19 -2 -25 2 -7
4 -2 10 13 14 22 6 22 7 4 8 -29 1 -56 -30 -43 -49 9 -13 10 -12 5 2 -3 10 -1
20 4 23 6 4 10 1 10 -4 0 -6 7 -11 15 -11 8 0 15 -4 15 -10 0 -5 -6 -10 -14
-10 -8 0 -18 -5 -22 -12 -4 -7 -3 -8 4 -4 7 4 12 3 12 -3 0 -23 -21 -20 -32 4
-10 22 -13 23 -20 10 -5 -8 -13 -13 -19 -10 -5 4 -9 1 -9 -4 0 -14 17 -14 25
0 5 6 13 3 22 -10 15 -22 9 -46 -9 -35 -6 4 -9 1 -6 -7 3 -8 -11 -38 -29 -67
-30 -46 -33 -56 -21 -70 12 -15 11 -16 -4 -3 -17 13 -23 8 -19 -13 1 -5 -5 -4
-13 4 -9 7 -16 9 -16 4 0 -5 -4 -3 -8 4 -6 8 -9 2 -9 -19 0 -29 1 -30 12 -9
10 19 13 20 18 6 5 -12 3 -15 -5 -10 -8 5 -9 2 -5 -9 4 -11 1 -17 -8 -17 -8 0
-18 -8 -24 -17 -8 -15 -12 -16 -22 -5 -20 19 -31 14 -17 -7 7 -11 17 -17 23
-15 5 3 0 -3 -12 -14 -12 -11 -19 -23 -15 -27 4 -5 -4 -1 -18 8 -28 19 -50 22
-50 6 0 -5 5 -7 10 -4 15 9 23 -21 11 -42 -9 -15 -10 -13 -5 10 4 19 3 27 -6
25 -22 -5 -23 23 -1 29 12 3 21 9 21 14 0 5 5 9 11 9 8 0 8 -4 0 -14 -9 -11
-6 -14 14 -13 25 0 25 0 10 23 -20 31 -19 37 5 31 11 -3 20 -2 20 3 0 12 -28
20 -47 14 -16 -5 -16 -4 0 6 10 6 25 9 33 6 18 -7 18 -3 -6 36 -23 38 -26 59
-7 55 6 -1 12 5 13 13 1 24 22 67 34 73 6 3 5 4 -2 3 -7 -1 -18 -12 -23 -23
-6 -11 -15 -18 -22 -16 -6 2 -14 -1 -18 -6 -3 -6 0 -9 7 -6 9 4 14 -3 15 -16
1 -12 -1 -19 -4 -15 -3 3 -12 1 -20 -5 -14 -12 -17 -5 -14 36 2 20 1 20 -13 1
-9 -10 -13 -23 -10 -27 2 -4 -4 -13 -15 -18 -14 -8 -22 -7 -31 4 -9 11 -9 15
-1 15 6 0 11 -4 11 -10 0 -5 7 -7 15 -4 8 4 13 9 10 13 -6 11 25 52 35 46 5
-3 12 0 16 6 4 7 3 9 -3 6 -5 -4 -16 5 -23 18 -12 23 -14 23 -35 7 -13 -9 -21
-20 -18 -24 6 -11 34 -10 30 1 -2 8 3 11 19 11 4 0 1 -7 -6 -15 -16 -19 -46
-19 -53 -1 -3 9 4 21 19 30 13 9 24 22 24 28 0 7 -7 5 -17 -4 -10 -8 -25 -18
-33 -22 -8 -4 -3 2 13 14 31 25 34 35 11 44 -12 5 -15 2 -10 -9 3 -9 2 -14 -3
-10 -5 3 -12 -1 -14 -7 -4 -10 -6 -10 -6 0 -1 7 10 24 24 38 21 21 29 23 40
14 8 -7 15 -9 15 -4 0 5 7 -2 16 -14 8 -12 20 -20 25 -17 5 4 9 1 9 -6 0 -7 3
-9 6 -6 4 4 1 13 -6 22 -9 11 -9 15 -1 15 7 0 9 5 6 10 -3 6 -1 10 4 10 6 0
11 5 11 11 0 8 -6 7 -16 -2 -15 -12 -16 -11 -10 11 6 19 5 21 -3 10 -6 -8 -8
-22 -5 -32 2 -9 0 -19 -6 -23 -5 -3 -10 1 -10 10 0 11 -5 15 -14 12 -24 -9
-27 6 -4 17 12 6 23 17 24 24 1 7 0 8 -3 2 -5 -10 -34 -25 -58 -30 -5 -1 -19
-9 -30 -18 -18 -15 -18 -15 -7 0 7 9 9 18 5 20 -4 3 -2 3 5 2 6 -2 12 3 12 11
0 8 -8 15 -17 15 -11 0 -14 3 -7 8 6 4 9 16 7 27 -2 11 -5 26 -5 33 -1 6 -4 9
-7 6 -9 -9 -8 -254 1 -254 4 0 8 -5 8 -11 0 -5 -3 -8 -7 -6 -5 3 -9 -8 -10
-24 -1 -16 2 -27 7 -24 5 3 11 1 15 -5 3 -5 14 -10 24 -10 10 0 25 -8 32 -17
8 -9 9 -14 2 -10 -6 4 -13 2 -16 -5 -2 -7 -3 -5 -2 5 2 11 -3 17 -15 17 -11 0
-22 5 -25 10 -10 16 -25 1 -25 -26 0 -13 6 -24 13 -24 8 0 7 -4 -3 -10 -13 -9
-13 -11 0 -19 11 -8 17 -3 25 17 10 23 12 24 18 8 4 -10 5 -21 2 -24 -3 -3 -5
1 -6 9 0 8 -4 4 -9 -8 -5 -13 -15 -20 -22 -18 -9 4 -14 -2 -15 -15 -1 -11 4
-20 10 -20 7 0 6 -4 -3 -10 -13 -9 -13 -11 0 -20 11 -7 17 -4 23 15 9 25 27
35 27 15 0 -5 -4 -10 -9 -10 -5 0 -11 -9 -14 -20 -3 -12 -11 -18 -19 -15 -11
4 -13 -14 -14 -90 0 -75 2 -95 13 -95 8 0 12 4 9 8 -2 4 4 13 15 20 10 7 19
10 19 7 0 -10 -35 -45 -45 -45 -7 0 -11 -26 -12 -68 l0 -68 85 -50 c48 -27
109 -62 137 -78 27 -15 108 -62 180 -104 137 -79 172 -99 245 -140 25 -14 53
-31 63 -37 18 -13 30 -9 95 30 9 6 57 33 106 60 48 28 98 56 110 62 11 7 20
18 18 24 -1 6 2 8 8 4 15 -9 122 54 114 67 -4 6 -2 8 4 4 13 -8 62 13 62 27 0
6 3 7 6 4 4 -4 19 2 34 13 16 11 33 20 39 20 6 0 11 5 11 10 0 6 6 10 13 10 7
0 22 7 33 16 17 14 17 15 1 10 -11 -4 -16 -2 -12 5 4 6 14 8 22 5 18 -7 56 12
48 24 -3 5 0 12 6 16 8 4 9 3 5 -4 -9 -14 3 -15 24 -2 13 8 15 67 16 425 0
228 -2 419 -5 424 -4 4 -24 18 -46 30 -22 12 -58 33 -80 46 -22 14 -47 28 -55
32 -8 3 -26 14 -40 23 -14 9 -50 31 -80 47 -52 29 -149 84 -215 123 -99 59
-206 120 -209 120 -2 0 -9 -7 -16 -15z m45 -94 c3 -5 2 -12 -3 -15 -5 -3 -9 1
-9 9 0 17 3 19 12 6z m55 -37 c0 -8 -19 -13 -24 -6 -3 5 1 9 9 9 8 0 15 -2 15
-3z m-245 -204 c-3 -5 -12 -10 -18 -10 -7 0 -6 4 3 10 19 12 23 12 15 0z m146
-7 c13 -16 12 -17 -3 -4 -10 7 -18 15 -18 17 0 8 8 3 21 -13z m129 -29 c0 -8
-19 -13 -24 -6 -3 5 1 9 9 9 8 0 15 -2 15 -3z m34 -2 c3 -5 -1 -9 -9 -9 -8 0
-12 4 -9 9 3 4 7 8 9 8 2 0 6 -4 9 -8z m7 -39 c13 -16 12 -17 -3 -4 -10 7 -18
15 -18 17 0 8 8 3 21 -13z m-400 -40 c13 -16 12 -17 -3 -4 -10 7 -18 15 -18
17 0 8 8 3 21 -13z m73 -1 c3 -5 -1 -9 -9 -9 -8 0 -12 4 -9 9 3 4 7 8 9 8 2 0
6 -4 9 -8z m336 4 c0 -2 -8 -10 -17 -17 -16 -13 -17 -12 -4 4 13 16 21 21 21
13z m-329 -43 c13 -16 12 -17 -3 -4 -10 7 -18 15 -18 17 0 8 8 3 21 -13z m36
2 c0 -8 -4 -12 -9 -9 -5 3 -6 10 -3 15 9 13 12 11 12 -6z m-166 -12 c13 -16
12 -17 -3 -4 -10 7 -18 15 -18 17 0 8 8 3 21 -13z m59 13 c0 -2 -8 -10 -17
-17 -16 -13 -17 -12 -4 4 13 16 21 21 21 13z m235 -26 c-3 -5 -12 -10 -18 -10
-7 0 -6 4 3 10 19 12 23 12 15 0z m-321 -18 c3 -5 -1 -9 -9 -9 -8 0 -12 4 -9
9 3 4 7 8 9 8 2 0 6 -4 9 -8z m46 2 c0 -8 -19 -13 -24 -6 -3 5 1 9 9 9 8 0 15
-2 15 -3z m34 -2 c3 -5 -1 -9 -9 -9 -8 0 -12 4 -9 9 3 4 7 8 9 8 2 0 6 -4 9
-8z m346 2 c0 -8 -19 -13 -24 -6 -3 5 1 9 9 9 8 0 15 -2 15 -3z m84 -42 c3 -5
-1 -9 -9 -9 -8 0 -12 4 -9 9 3 4 7 8 9 8 2 0 6 -4 9 -8z m7 -39 c13 -16 12
-17 -3 -4 -10 7 -18 15 -18 17 0 8 8 3 21 -13z m-355 -5 c3 -4 -1 -5 -10 -4
-8 1 -18 5 -22 8 -3 4 1 5 10 4 8 -1 18 -5 22 -8z m-116 -14 c0 -8 -19 -13
-24 -6 -3 5 1 9 9 9 8 0 15 -2 15 -3z m110 -8 c0 -2 -8 -10 -17 -17 -16 -13
-17 -12 -4 4 13 16 21 21 21 13z m161 -13 c13 -16 12 -17 -3 -4 -10 7 -18 15
-18 17 0 8 8 3 21 -13z m-231 3 c0 -2 -8 -10 -17 -17 -16 -13 -17 -12 -4 4 13
16 21 21 21 13z m-455 -36 c-3 -5 -12 -10 -18 -10 -7 0 -6 4 3 10 19 12 23 12
15 0z m65 -65 c0 -2 -5 -7 -12 -11 -7 -4 -8 -3 -4 4 4 7 1 12 -8 12 -9 0 -16
5 -16 10 0 7 6 7 20 0 11 -6 20 -13 20 -15z m211 8 c13 -16 12 -17 -3 -4 -10
7 -18 15 -18 17 0 8 8 3 21 -13z m-299 -27 c7 4 8 2 4 -4 -11 -18 -26 -14 -25
6 0 10 3 12 6 4 2 -6 10 -9 15 -6z m102 -11 c3 -8 2 -14 -2 -13 -4 1 -18 -4
-30 -11 -13 -7 -26 -10 -30 -7 -3 3 0 6 7 6 7 0 9 4 6 10 -4 6 1 7 11 3 13 -5
15 -3 9 7 -5 9 -4 11 3 6 7 -4 12 -2 12 3 0 16 7 13 14 -4z m166 5 c0 -5 -2
-10 -4 -10 -3 0 -8 5 -11 10 -3 6 -1 10 4 10 6 0 11 -4 11 -10z m-6 -50 c-6
-6 -10 -3 -10 10 0 13 4 16 10 10 7 -7 7 -13 0 -20z m-184 -26 c0 -2 -9 0 -20
6 -12 6 -20 7 -20 1 0 -5 6 -12 13 -14 9 -4 9 -6 0 -6 -15 -1 -26 16 -18 29 6
10 45 -4 45 -16z m-45 -84 c3 -5 2 -10 -4 -10 -5 0 -13 5 -16 10 -3 6 -2 10 4
10 5 0 13 -4 16 -10z m61 -15 c1 -9 -2 -12 -9 -8 -7 4 -8 0 -4 -11 4 -10 3
-15 -3 -11 -6 3 -10 1 -10 -6 0 -7 -3 -10 -6 -7 -3 4 0 17 7 30 7 12 12 28 10
33 -1 6 1 6 5 2 4 -4 9 -14 10 -22z m-86 -5 c0 -5 6 -10 14 -10 23 0 27 -29 6
-40 -11 -6 -20 -8 -20 -4 0 3 -8 0 -17 -7 -16 -13 -17 -12 -5 3 10 13 10 17 0
21 -9 4 -9 6 -1 6 6 1 14 -3 18 -9 3 -5 12 -7 20 -4 8 4 12 10 9 15 -3 5 -9 7
-13 5 -4 -3 -12 4 -19 15 -7 11 -8 19 -2 19 5 0 10 -4 10 -10z m45 -60 c-3 -5
-12 -10 -18 -10 -7 0 -6 4 3 10 19 12 23 12 15 0z m-25 -32 c0 -6 -8 -4 -17 3
-15 12 -16 12 -10 -4 4 -11 3 -16 -3 -12 -6 3 -10 1 -10 -6 0 -7 -3 -10 -6 -7
-11 12 16 47 31 42 8 -4 15 -11 15 -16z m21 -11 c-10 -9 -11 -8 -5 6 3 10 9
15 12 12 3 -3 0 -11 -7 -18z m-28 -62 c-3 -9 -8 -14 -10 -11 -3 3 -2 9 2 15 9
16 15 13 8 -4z m-20 -40 c-3 -9 -8 -14 -10 -11 -3 3 -2 9 2 15 9 16 15 13 8
-4z m1222 -123 c-3 -3 -11 0 -18 7 -9 10 -8 11 6 5 10 -3 15 -9 12 -12z m85
-8 c0 -8 -19 -13 -24 -6 -3 5 1 9 9 9 8 0 15 -2 15 -3z m-365 -83 c3 -5 2 -12
-3 -15 -5 -3 -9 1 -9 9 0 17 3 19 12 6z m36 -8 c13 -16 12 -17 -3 -4 -10 7
-18 15 -18 17 0 8 8 3 21 -13z m-27 -111 c3 -5 -1 -9 -9 -9 -8 0 -12 4 -9 9 3
4 7 8 9 8 2 0 6 -4 9 -8z m-124 -26 c0 -2 -8 -10 -17 -17 -16 -13 -17 -12 -4
4 13 16 21 21 21 13z m60 -30 c0 -3 -4 -8 -10 -11 -5 -3 -10 -1 -10 4 0 6 5
11 10 11 6 0 10 -2 10 -4z m-95 -46 c3 -6 -1 -7 -9 -4 -18 7 -21 14 -7 14 6 0
13 -4 16 -10z"/>
<path d="M764 1623 c2 -9 8 -18 15 -19 6 -1 7 0 1 3 -5 2 -8 9 -5 13 3 5 1 11
-4 14 -5 4 -8 -2 -7 -11z"/>
<path d="M720 1596 c7 -7 14 -6 21 1 9 9 7 12 -9 10 -14 -1 -18 -5 -12 -11z"/>
<path d="M687 1570 c-3 -11 -3 -20 -1 -20 2 0 8 9 14 20 6 11 7 20 2 20 -6 0
-12 -9 -15 -20z"/>
<path d="M714 1569 c-4 -7 -3 -9 4 -5 5 3 12 0 15 -6 2 -7 7 -10 11 -7 4 3 0
12 -8 18 -11 9 -16 9 -22 0z"/>
<path d="M646 1561 c-4 -6 -12 -8 -18 -5 -6 4 -5 -3 2 -15 8 -16 15 -19 23
-13 14 11 40 -11 29 -24 -4 -4 -1 -4 5 0 19 10 36 46 23 46 -5 0 -10 -8 -10
-17 -1 -14 -6 -12 -24 11 -15 18 -26 24 -30 17z m6 -23 c-7 -7 -12 -8 -12 -2
0 14 12 26 19 19 2 -3 -1 -11 -7 -17z"/>
<path d="M575 1529 c-4 -6 -5 -12 -2 -15 2 -3 7 2 10 11 7 17 1 20 -8 4z"/>
<path d="M606 1525 c4 -8 11 -15 16 -15 6 0 5 6 -2 15 -7 8 -14 15 -16 15 -2
0 -1 -7 2 -15z"/>
<path d="M592 1510 c1 -8 -4 -26 -11 -39 -11 -20 -11 -26 4 -40 10 -9 15 -11
12 -6 -7 14 20 38 28 25 3 -6 10 -10 16 -10 5 0 1 8 -8 18 -17 17 -19 17 -35
-3 -21 -24 -24 -8 -4 21 10 14 11 25 5 35 -8 12 -9 12 -7 -1z"/>
<path d="M656 1499 c4 -8 -1 -9 -17 -5 -13 3 -18 3 -11 0 6 -3 9 -10 6 -16 -4
-6 2 -5 15 1 22 12 29 31 10 31 -5 0 -7 -5 -3 -11z"/>
<path d="M548 1493 c6 -2 18 -2 25 0 6 3 1 5 -13 5 -14 0 -19 -2 -12 -5z"/>
<path d="M510 1480 c0 -5 4 -10 9 -10 10 0 9 -19 -2 -37 -5 -7 -5 -13 0 -13 4
0 3 -4 -3 -8 -6 -4 -4 -13 8 -24 10 -10 18 -14 18 -9 0 6 -5 13 -11 16 -6 5
-4 11 7 19 11 9 14 18 8 27 -9 14 -10 19 -13 39 0 6 -5 10 -11 10 -5 0 -10 -4
-10 -10z m30 -50 c0 -5 -5 -10 -11 -10 -5 0 -7 5 -4 10 3 6 8 10 11 10 2 0 4
-4 4 -10z"/>
<path d="M440 1450 c-8 -5 -10 -10 -5 -10 6 0 17 5 25 10 8 5 11 10 5 10 -5 0
-17 -5 -25 -10z"/>
<path d="M480 1440 c-12 -7 -12 -11 -2 -20 6 -5 10 -7 7 -4 -3 4 3 13 13 20
19 15 5 19 -18 4z"/>
<path d="M426 1405 c9 -14 18 -25 20 -25 2 0 -2 11 -8 25 -6 14 -15 25 -20 25
-5 0 -1 -11 8 -25z"/>
<path d="M450 1418 c0 -9 5 -20 10 -23 13 -8 13 5 0 25 -8 13 -10 13 -10 -2z"/>
<path d="M556 1415 c-9 -26 -7 -32 5 -12 6 10 9 21 6 23 -2 3 -7 -2 -11 -11z"/>
<path d="M610 1420 c0 -5 5 -10 10 -10 6 0 10 5 10 10 0 6 -4 10 -10 10 -5 0
-10 -4 -10 -10z"/>
<path d="M351 1396 c-9 -11 -9 -16 1 -22 7 -4 10 -4 6 1 -4 4 -3 14 3 22 6 7
9 13 6 13 -2 0 -10 -6 -16 -14z"/>
<path d="M375 1389 c-4 -12 -2 -26 5 -33 9 -8 11 -6 6 11 -5 15 -1 25 11 32
16 9 16 10 1 11 -9 0 -20 -9 -23 -21z"/>
<path d="M579 1408 c-6 -14 -6 -57 0 -53 8 4 12 55 5 55 -2 0 -5 -1 -5 -2z"/>
<path d="M486 1383 c5 -23 -10 -32 -19 -13 -3 6 -4 5 -3 -2 4 -21 24 -20 36 3
7 12 8 19 2 15 -6 -3 -13 0 -16 6 -3 7 -3 3 0 -9z"/>
<path d="M401 1373 c0 -11 3 -13 6 -5 2 6 10 9 15 6 7 -4 8 -2 4 4 -11 18 -26
14 -25 -5z"/>
<path d="M323 1367 c0 -9 3 -14 7 -12 4 2 12 -7 18 -20 12 -26 27 -32 37 -15
3 5 13 6 23 3 9 -3 14 -3 10 1 -3 4 -12 8 -20 10 -7 1 -19 5 -25 9 -7 5 -13 5
-13 1 0 -3 -8 4 -18 16 -14 18 -19 19 -19 7z m52 -37 c3 -5 1 -10 -4 -10 -6 0
-11 5 -11 10 0 6 2 10 4 10 3 0 8 -4 11 -10z"/>
<path d="M282 1351 c-21 -16 -22 -17 -3 -17 11 0 18 3 15 7 -2 4 2 9 8 12 7 2
11 7 8 10 -3 3 -16 -2 -28 -12z"/>
<path d="M427 1356 c-14 -11 -15 -15 -4 -19 8 -3 20 -1 28 4 11 7 11 9 1 9 -7
0 -10 5 -7 10 8 13 4 12 -18 -4z"/>
<path d="M240 1331 c0 -7 -4 -10 -9 -6 -5 3 -13 0 -17 -6 -4 -8 -3 -9 4 -5 7
4 12 1 12 -6 0 -8 5 -6 11 5 6 10 8 21 5 24 -3 4 -6 1 -6 -6z"/>
<path d="M310 1330 c0 -5 5 -10 10 -10 6 0 10 5 10 10 0 6 -4 10 -10 10 -5 0
-10 -4 -10 -10z"/>
<path d="M460 1330 c-8 -5 -12 -11 -10 -14 3 -2 14 2 24 10 22 15 10 19 -14 4z"/>
<path d="M476 1305 l-27 -25 -9 23 -9 22 0 -22 c-1 -13 4 -23 10 -23 5 0 7 -6
4 -12 -4 -7 3 -2 15 11 20 23 21 23 35 5 8 -10 15 -14 15 -7 0 6 -5 15 -11 19
-8 4 -7 9 2 15 7 4 11 10 8 14 -3 3 -18 -6 -33 -20z"/>
<path d="M256 1304 c-20 -19 -20 -25 -1 -18 8 4 15 10 15 15 0 14 22 10 41 -7
10 -9 23 -13 28 -9 14 8 14 25 0 25 -5 0 -7 -4 -4 -10 10 -16 -11 -12 -25 5
-16 19 -35 19 -54 -1z"/>
<path d="M522 1300 c0 -14 2 -19 5 -12 2 6 2 18 0 25 -3 6 -5 1 -5 -13z"/>
<path d="M185 1300 c-3 -5 -1 -10 4 -10 6 0 11 5 11 10 0 6 -2 10 -4 10 -3 0
-8 -4 -11 -10z"/>
<path d="M393 1300 c3 -16 21 -14 25 2 3 10 2 10 -6 -1 -7 -9 -11 -10 -15 -2
-4 7 -5 8 -4 1z"/>
<path d="M366 1285 c4 -8 11 -15 16 -15 6 0 5 6 -2 15 -7 8 -14 15 -16 15 -2
0 -1 -7 2 -15z"/>
<path d="M166 1268 c4 -17 2 -28 -5 -28 -6 0 -12 10 -12 23 -1 18 -2 19 -6 3
-7 -25 13 -44 29 -28 8 8 9 17 0 34 -11 22 -11 22 -6 -4z"/>
<path d="M210 1279 c0 -5 -4 -8 -8 -5 -4 2 -8 -4 -8 -14 0 -10 4 -16 8 -14 4
3 8 0 8 -5 0 -6 5 -11 11 -11 8 0 8 5 -1 15 -10 12 -10 18 0 30 9 10 9 15 1
15 -6 0 -11 -5 -11 -11z"/>
<path d="M274 1275 c-4 -8 -10 -12 -15 -9 -5 3 -6 -3 -2 -12 4 -11 8 -13 11
-6 2 7 8 10 13 7 5 -4 6 1 3 10 -5 11 -2 14 12 8 12 -4 15 -3 10 5 -10 16 -26
15 -32 -3z"/>
<path d="M350 1272 c0 -8 -5 -10 -12 -6 -8 5 -8 1 2 -12 8 -10 15 -20 16 -22
1 -2 4 3 7 11 3 8 1 20 -4 28 -7 11 -9 11 -9 1z"/>
<path d="M540 1270 c-8 -5 -11 -13 -6 -17 5 -4 11 -2 13 5 3 6 9 10 14 6 5 -3
9 0 9 5 0 13 -10 14 -30 1z"/>
<path d="M230 1261 c0 -6 4 -13 10 -16 6 -3 7 1 4 9 -7 18 -14 21 -14 7z"/>
<path d="M410 1260 c0 -5 5 -10 10 -10 6 0 10 5 10 10 0 6 -4 10 -10 10 -5 0
-10 -4 -10 -10z"/>
<path d="M470 1260 c0 -5 5 -10 10 -10 6 0 10 5 10 10 0 6 -4 10 -10 10 -5 0
-10 -4 -10 -10z"/>
<path d="M302 1248 c-7 -7 -12 -17 -12 -24 0 -7 -6 -15 -12 -17 -10 -4 -10 -6
0 -6 8 -1 16 8 19 19 3 11 9 17 14 15 4 -3 6 -12 3 -19 -7 -19 15 -31 29 -16
9 10 8 12 -5 7 -20 -7 -25 9 -5 16 9 4 9 6 -1 6 -7 1 -11 5 -7 10 9 15 -10 22
-23 9z"/>
<path d="M500 1245 c-7 -9 -10 -18 -6 -22 3 -3 6 0 6 8 1 10 5 8 15 -5 8 -11
17 -17 20 -14 3 3 -1 12 -9 21 -8 8 -12 17 -9 21 4 3 4 6 1 6 -3 0 -11 -7 -18
-15z"/>
<path d="M443 1243 c-7 -3 -13 -9 -13 -15 0 -6 7 -4 17 3 15 12 16 12 10 -4
-4 -10 -3 -16 2 -12 5 3 12 -1 14 -7 3 -7 6 -8 6 -2 2 17 -23 42 -36 37z"/>
<path d="M369 1230 c-3 -20 -4 -25 -12 -37 -5 -7 -5 -13 -1 -13 3 0 -2 -8 -13
-17 -10 -10 -17 -17 -14 -16 2 2 10 -2 18 -9 10 -8 17 -8 24 -1 8 8 7 13 -1
18 -8 5 -6 11 7 20 14 11 15 16 6 26 -6 6 -9 18 -6 25 3 8 2 14 -1 14 -3 0 -7
-4 -7 -10z m11 -40 c0 -5 -5 -10 -11 -10 -5 0 -7 5 -4 10 3 6 8 10 11 10 2 0
4 -4 4 -10z m-15 -40 c3 -5 2 -10 -4 -10 -5 0 -13 5 -16 10 -3 6 -2 10 4 10 5
0 13 -4 16 -10z"/>
<path d="M398 1233 c6 -2 12 -9 12 -14 0 -6 -4 -7 -10 -4 -6 4 -7 -1 -3 -11 5
-15 7 -15 15 0 10 18 3 36 -15 35 -9 0 -9 -2 1 -6z"/>
<path d="M190 1220 c8 -5 20 -10 25 -10 6 0 3 5 -5 10 -8 5 -19 10 -25 10 -5
0 -3 -5 5 -10z"/>
<path d="M234 1218 c-4 -6 -3 -8 4 -4 5 3 13 0 15 -6 3 -8 6 -6 6 5 1 19 -14
23 -25 5z"/>
<path d="M166 1194 c-9 -24 -2 -26 12 -4 7 11 8 20 3 20 -5 0 -12 -7 -15 -16z"/>
<path d="M432 1205 c4 -4 0 -14 -10 -21 -14 -11 -15 -15 -3 -26 12 -11 13 -10
7 6 -5 14 -2 17 9 12 11 -4 14 -2 9 6 -5 8 -2 9 9 5 25 -9 21 0 -5 14 -13 6
-20 8 -16 4z"/>
<path d="M486 1194 c-5 -14 -4 -15 9 -4 17 14 19 20 6 20 -5 0 -12 -7 -15 -16z"/>
<path d="M290 1181 c0 -17 21 -24 33 -12 9 9 7 10 -7 5 -13 -5 -17 -4 -12 4 4
7 2 12 -3 12 -6 0 -11 -4 -11 -9z"/>
<path d="M390 1164 c0 -13 18 -39 24 -34 2 3 -2 14 -10 24 -8 11 -14 16 -14
10z"/>
<path d="M286 1143 c2 -7 -1 -13 -6 -13 -6 0 -10 -4 -10 -10 0 -17 14 -11 28
11 8 12 9 18 4 15 -6 -3 -12 -3 -15 1 -2 5 -2 2 -1 -4z"/>
<path d="M170 1120 c0 -5 5 -10 10 -10 6 0 10 -6 10 -14 0 -21 20 -30 33 -16
9 10 8 12 -7 6 -13 -4 -17 -2 -13 7 3 7 -4 19 -14 25 -12 8 -19 8 -19 2z"/>
<path d="M330 1123 c0 -4 5 -15 10 -23 8 -13 10 -13 10 2 0 9 -4 20 -10 23 -5
3 -10 3 -10 -2z"/>
<path d="M371 1116 c-9 -11 -9 -16 0 -22 7 -4 9 -3 5 4 -3 5 0 12 6 15 7 2 10
7 7 11 -3 4 -12 0 -18 -8z"/>
<path d="M308 1103 c19 -7 14 -23 -5 -16 -15 5 -16 3 -5 -8 9 -9 15 -10 23 -2
13 13 4 33 -14 32 -9 0 -9 -2 1 -6z"/>
<path d="M230 1067 c-14 -11 -14 -14 2 -29 10 -10 18 -14 18 -9 0 6 -5 13 -12
17 -7 5 -5 11 7 21 11 7 15 13 9 13 -5 0 -16 -6 -24 -13z"/>
<path d="M340 1070 c-8 -5 -11 -12 -7 -17 5 -4 12 -1 17 7 8 13 13 13 30 2 15
-9 25 -10 38 -2 15 9 14 10 -5 5 -12 -3 -24 -1 -28 5 -8 12 -25 13 -45 0z"/>
<path d="M260 1060 c-8 -5 -10 -10 -5 -10 6 0 17 5 25 10 8 5 11 10 5 10 -5 0
-17 -5 -25 -10z"/>
<path d="M352 1038 c-7 -7 -12 -18 -12 -26 0 -7 -5 -10 -12 -6 -6 4 -8 3 -4
-4 3 -6 2 -13 -4 -17 -5 -3 -10 -11 -10 -17 0 -6 9 1 20 15 11 14 20 30 20 36
0 5 8 15 18 20 9 6 12 11 7 11 -6 0 -16 -5 -23 -12z"/>
<path d="M310 1030 c0 -5 5 -10 10 -10 6 0 10 5 10 10 0 6 -4 10 -10 10 -5 0
-10 -4 -10 -10z"/>
<path d="M390 1030 c0 -5 5 -10 10 -10 6 0 10 5 10 10 0 6 -4 10 -10 10 -5 0
-10 -4 -10 -10z"/>
<path d="M287 995 c-16 -11 -16 -13 -2 -19 9 -3 14 -2 10 3 -3 5 1 11 7 14 7
2 11 7 8 10 -3 3 -13 0 -23 -8z"/>
<path d="M368 996 c-10 -7 -15 -16 -11 -19 10 -10 25 -8 19 2 -4 5 0 11 6 14
7 2 11 7 8 10 -3 3 -13 0 -22 -7z"/>
<path d="M272 965 c4 -4 0 -14 -10 -21 -14 -11 -15 -15 -3 -26 12 -11 13 -10
7 6 -5 14 -2 17 9 12 11 -4 14 -2 9 6 -5 8 -2 9 9 5 25 -9 21 0 -5 14 -13 6
-20 8 -16 4z"/>
<path d="M343 956 c15 -12 16 -15 2 -26 -9 -7 -13 -15 -10 -18 3 -3 12 3 19
14 15 20 5 44 -18 44 -6 0 -3 -7 7 -14z"/>
<path d="M312 934 c-7 -8 -8 -14 -3 -14 10 0 25 19 20 25 -2 1 -10 -3 -17 -11z"/>
<path d="M277 907 c-3 -8 -2 -20 3 -26 5 -9 8 -4 8 13 0 29 -3 32 -11 13z"/>
</g>
</svg>
